<svg xmlns="http://www.w3.org/2000/svg" viewBox="0 0 64 64" id="teamwork"><path d="M23.36 31H40.64a1 1 0 0 0 .9961-1.0908L41.24 25.5586a9.2306 9.2306 0 0 0-5.135-7.49 8.56 8.56 0 1 0-8.21 0 9.2306 9.2306 0 0 0-5.135 7.49l-.3955 4.3506A1 1 0 0 0 23.36 31zM15.7454 49.0681a8.56 8.56 0 1 0-8.2109 0 9.2309 9.2309 0 0 0-5.1351 7.49l-.3955 4.3506A1 1 0 0 0 3 62H20.28a1 1 0 0 0 .9961-1.0908l-.3955-4.3506A9.2307 9.2307 0 0 0 15.7454 49.0681zM61.6006 56.5586a9.2309 9.2309 0 0 0-5.1351-7.49 8.56 8.56 0 1 0-8.2109 0 9.2307 9.2307 0 0 0-5.1355 7.49l-.3955 4.3506A1 1 0 0 0 43.72 62H61a1 1 0 0 0 .9961-1.0908zM33 43.511V35a1 1 0 0 0-2 0v8.511l-8.6143 6.7a1 1 0 1 0 1.2286 1.5782L32 45.2666l8.3857 6.5225a1 1 0 1 0 1.2286-1.5782z"></path></svg>